<svg xmlns="http://www.w3.org/2000/svg" xmlns:xlink="http://www.w3.org/1999/xlink" width="170" zoomAndPan="magnify" viewBox="0 0 127.5 52.499999" height="70" preserveAspectRatio="xMidYMid meet" version="1.0"><defs><g/><clipPath id="0fc33ff2cb"><path d="M 0.355469 0 L 126.652344 0 L 126.652344 52.003906 L 0.355469 52.003906 Z M 0.355469 0 " clip-rule="nonzero"/></clipPath><clipPath id="8633d15979"><path d="M 0.355469 4.707031 L 54.632812 4.707031 L 54.632812 41.964844 L 0.355469 41.964844 Z M 0.355469 4.707031 " clip-rule="nonzero"/></clipPath></defs><g clip-path="url(#0fc33ff2cb)"><path fill="#ffffff" d="M 0.355469 0 L 126.652344 0 L 126.652344 52.003906 L 0.355469 52.003906 Z M 0.355469 0 " fill-opacity="1" fill-rule="nonzero"/><path fill="#ffffff" d="M 0.355469 0 L 126.652344 0 L 126.652344 52.003906 L 0.355469 52.003906 Z M 0.355469 0 " fill-opacity="1" fill-rule="nonzero"/></g><g clip-path="url(#8633d15979)"><path fill="#f68712" d="M 117.1875 40 C 117.769531 40 118.238281 40.472656 118.238281 41.050781 C 118.238281 41.632812 117.769531 42.105469 117.1875 42.105469 L 9.085938 42.105469 C 8.042969 42.105469 7.097656 41.679688 6.410156 40.996094 C 5.726562 40.308594 5.300781 39.363281 5.300781 38.320312 L 5.300781 25.023438 L 3.425781 25.023438 C 2.691406 25.023438 2.089844 24.832031 1.621094 24.511719 C 1.097656 24.160156 0.753906 23.660156 0.578125 23.09375 L 0.578125 23.097656 C 0.417969 22.570312 0.410156 21.992188 0.554688 21.429688 C 0.726562 20.757812 1.113281 20.105469 1.703125 19.597656 L 17.820312 5.707031 C 18.59375 5.039062 19.59375 4.707031 20.582031 4.707031 C 21.570312 4.707031 22.570312 5.039062 23.34375 5.707031 L 34.175781 15.074219 C 34.613281 15.453125 34.660156 16.117188 34.28125 16.554688 C 33.902344 16.992188 33.238281 17.042969 32.800781 16.660156 L 21.96875 7.292969 C 21.597656 6.972656 21.09375 6.8125 20.582031 6.8125 C 20.066406 6.8125 19.5625 6.972656 19.191406 7.292969 L 3.074219 21.1875 C 2.820312 21.40625 2.65625 21.675781 2.589844 21.949219 C 2.539062 22.136719 2.539062 22.324219 2.585938 22.480469 L 2.582031 22.480469 L 2.585938 22.484375 C 2.621094 22.597656 2.691406 22.695312 2.796875 22.769531 C 2.933594 22.859375 3.140625 22.917969 3.425781 22.917969 L 6.355469 22.917969 C 6.933594 22.917969 7.40625 23.390625 7.40625 23.96875 L 7.40625 38.320312 C 7.40625 38.78125 7.597656 39.203125 7.902344 39.507812 C 8.203125 39.808594 8.625 40 9.085938 40 Z M 117.1875 40 " fill-opacity="1" fill-rule="nonzero"/></g><g fill="#f68712" fill-opacity="1"><g transform="translate(12.621826, 33.534212)"><g><path d="M 1.34375 0 L 1.34375 -10.390625 L 5.53125 -10.390625 C 6.601562 -10.390625 7.410156 -10.140625 7.953125 -9.640625 C 8.503906 -9.148438 8.78125 -8.46875 8.78125 -7.59375 C 8.78125 -6.96875 8.617188 -6.453125 8.296875 -6.046875 C 7.984375 -5.648438 7.507812 -5.34375 6.875 -5.125 L 6.875 -4.984375 C 7.195312 -4.835938 7.457031 -4.625 7.65625 -4.34375 C 7.863281 -4.0625 8.054688 -3.644531 8.234375 -3.09375 L 9.265625 0 L 7.15625 0 L 6.140625 -3.109375 C 6.035156 -3.421875 5.914062 -3.660156 5.78125 -3.828125 C 5.65625 -4.003906 5.488281 -4.128906 5.28125 -4.203125 C 5.082031 -4.285156 4.828125 -4.328125 4.515625 -4.328125 L 3.40625 -4.328125 L 3.40625 0 Z M 5.28125 -5.953125 C 6.269531 -5.953125 6.765625 -6.421875 6.765625 -7.359375 C 6.765625 -8.296875 6.269531 -8.765625 5.28125 -8.765625 L 3.40625 -8.765625 L 3.40625 -5.953125 Z M 5.28125 -5.953125 "/></g></g></g><g fill="#f68712" fill-opacity="1"><g transform="translate(21.655048, 33.534212)"><g><path d="M 1.34375 0 L 1.34375 -10.390625 L 3.40625 -10.390625 L 3.40625 -6.15625 L 3.640625 -6.15625 L 7.109375 -10.390625 L 9.203125 -10.390625 L 9.203125 -10.21875 L 5.375 -5.484375 L 9.609375 -0.171875 L 9.609375 0 L 7.28125 0 L 3.640625 -4.484375 L 3.40625 -4.484375 L 3.40625 0 Z M 1.34375 0 "/></g></g></g><g fill="#f68712" fill-opacity="1"><g transform="translate(30.574531, 33.534212)"><g><path d="M 5.09375 -10.390625 C 6.78125 -10.390625 8.066406 -9.953125 8.953125 -9.078125 C 9.835938 -8.210938 10.28125 -6.921875 10.28125 -5.203125 C 10.28125 -3.484375 9.835938 -2.1875 8.953125 -1.3125 C 8.066406 -0.4375 6.78125 0 5.09375 0 L 1.34375 0 L 1.34375 -10.390625 Z M 4.96875 -1.734375 C 6.039062 -1.734375 6.84375 -2.003906 7.375 -2.546875 C 7.90625 -3.097656 8.171875 -3.984375 8.171875 -5.203125 C 8.171875 -6.421875 7.90625 -7.300781 7.375 -7.84375 C 6.84375 -8.394531 6.039062 -8.671875 4.96875 -8.671875 L 3.40625 -8.671875 L 3.40625 -1.734375 Z M 4.96875 -1.734375 "/></g></g></g><g fill="#f68712" fill-opacity="1"><g transform="translate(41.001051, 33.534212)"><g><path d="M 1.34375 0 L 1.34375 -10.390625 L 3.40625 -10.390625 L 3.40625 -6.15625 L 3.640625 -6.15625 L 7.109375 -10.390625 L 9.203125 -10.390625 L 9.203125 -10.21875 L 5.375 -5.484375 L 9.609375 -0.171875 L 9.609375 0 L 7.28125 0 L 3.640625 -4.484375 L 3.40625 -4.484375 L 3.40625 0 Z M 1.34375 0 "/></g></g></g><g fill="#f68712" fill-opacity="1"><g transform="translate(49.920534, 33.534212)"><g/></g></g><g fill="#f68712" fill-opacity="1"><g transform="translate(52.66969, 33.534212)"><g><path d="M 5.6875 0.15625 C 4.726562 0.15625 3.882812 -0.0390625 3.15625 -0.4375 C 2.425781 -0.84375 1.851562 -1.441406 1.4375 -2.234375 C 1.019531 -3.035156 0.8125 -4.023438 0.8125 -5.203125 C 0.8125 -6.367188 1.019531 -7.347656 1.4375 -8.140625 C 1.851562 -8.941406 2.425781 -9.539062 3.15625 -9.9375 C 3.882812 -10.34375 4.726562 -10.546875 5.6875 -10.546875 C 6.6875 -10.546875 7.535156 -10.347656 8.234375 -9.953125 C 8.929688 -9.566406 9.429688 -8.972656 9.734375 -8.171875 L 8.234375 -7.25 L 8.046875 -7.265625 C 7.828125 -7.804688 7.523438 -8.191406 7.140625 -8.421875 C 6.753906 -8.660156 6.269531 -8.78125 5.6875 -8.78125 C 4.820312 -8.78125 4.144531 -8.492188 3.65625 -7.921875 C 3.175781 -7.347656 2.9375 -6.441406 2.9375 -5.203125 C 2.9375 -3.960938 3.175781 -3.054688 3.65625 -2.484375 C 4.144531 -1.910156 4.820312 -1.625 5.6875 -1.625 C 7.03125 -1.625 7.851562 -2.28125 8.15625 -3.59375 L 8.34375 -3.59375 L 9.859375 -2.8125 C 9.566406 -1.820312 9.078125 -1.078125 8.390625 -0.578125 C 7.703125 -0.0859375 6.800781 0.15625 5.6875 0.15625 Z M 5.6875 0.15625 "/></g></g></g><g fill="#f68712" fill-opacity="1"><g transform="translate(62.17919, 33.534212)"><g><path d="M 4.5625 0.15625 C 3.789062 0.15625 3.113281 0 2.53125 -0.3125 C 1.945312 -0.632812 1.492188 -1.097656 1.171875 -1.703125 C 0.859375 -2.316406 0.703125 -3.054688 0.703125 -3.921875 C 0.703125 -4.785156 0.859375 -5.519531 1.171875 -6.125 C 1.492188 -6.738281 1.945312 -7.203125 2.53125 -7.515625 C 3.113281 -7.835938 3.789062 -8 4.5625 -8 C 5.320312 -8 5.992188 -7.835938 6.578125 -7.515625 C 7.160156 -7.203125 7.613281 -6.738281 7.9375 -6.125 C 8.257812 -5.519531 8.421875 -4.785156 8.421875 -3.921875 C 8.421875 -3.054688 8.257812 -2.316406 7.9375 -1.703125 C 7.613281 -1.097656 7.160156 -0.632812 6.578125 -0.3125 C 5.992188 0 5.320312 0.15625 4.5625 0.15625 Z M 4.5625 -1.515625 C 5.78125 -1.515625 6.390625 -2.316406 6.390625 -3.921875 C 6.390625 -4.742188 6.234375 -5.347656 5.921875 -5.734375 C 5.609375 -6.128906 5.15625 -6.328125 4.5625 -6.328125 C 3.34375 -6.328125 2.734375 -5.523438 2.734375 -3.921875 C 2.734375 -2.316406 3.34375 -1.515625 4.5625 -1.515625 Z M 4.5625 -1.515625 "/></g></g></g><g fill="#f68712" fill-opacity="1"><g transform="translate(70.608172, 33.534212)"><g><path d="M 1.125 0 L 1.125 -7.84375 L 3.015625 -7.84375 L 3.015625 -6.6875 L 3.171875 -6.65625 C 3.660156 -7.550781 4.453125 -8 5.546875 -8 C 6.453125 -8 7.113281 -7.75 7.53125 -7.25 C 7.957031 -6.757812 8.171875 -6.039062 8.171875 -5.09375 L 8.171875 0 L 6.203125 0 L 6.203125 -4.859375 C 6.203125 -5.378906 6.097656 -5.753906 5.890625 -5.984375 C 5.679688 -6.210938 5.347656 -6.328125 4.890625 -6.328125 C 4.328125 -6.328125 3.882812 -6.144531 3.5625 -5.78125 C 3.25 -5.414062 3.09375 -4.84375 3.09375 -4.0625 L 3.09375 0 Z M 1.125 0 "/></g></g></g><g fill="#f68712" fill-opacity="1"><g transform="translate(79.10824, 33.534212)"><g><path d="M 5.40625 -1.875 L 5.921875 -0.40625 C 5.710938 -0.238281 5.445312 -0.101562 5.125 0 C 4.800781 0.101562 4.4375 0.15625 4.03125 0.15625 C 3.175781 0.15625 2.523438 -0.0703125 2.078125 -0.53125 C 1.640625 -1 1.421875 -1.675781 1.421875 -2.5625 L 1.421875 -6.28125 L 0.234375 -6.28125 L 0.234375 -7.84375 L 1.421875 -7.84375 L 1.421875 -9.375 L 3.40625 -9.703125 L 3.40625 -7.84375 L 5.625 -7.84375 L 5.625 -6.28125 L 3.40625 -6.28125 L 3.40625 -2.703125 C 3.40625 -2.316406 3.484375 -2.03125 3.640625 -1.84375 C 3.796875 -1.664062 4.03125 -1.578125 4.34375 -1.578125 C 4.695312 -1.578125 5.003906 -1.675781 5.265625 -1.875 Z M 5.40625 -1.875 "/></g></g></g><g fill="#f68712" fill-opacity="1"><g transform="translate(84.51604, 33.534212)"><g><path d="M 1.125 0 L 1.125 -7.84375 L 3.046875 -7.84375 L 3.046875 -6.671875 L 3.1875 -6.640625 C 3.382812 -7.078125 3.632812 -7.398438 3.9375 -7.609375 C 4.25 -7.816406 4.625 -7.921875 5.0625 -7.921875 C 5.507812 -7.921875 5.847656 -7.84375 6.078125 -7.6875 L 5.75 -5.984375 L 5.59375 -5.953125 C 5.46875 -6.003906 5.34375 -6.039062 5.21875 -6.0625 C 5.101562 -6.09375 4.960938 -6.109375 4.796875 -6.109375 C 4.242188 -6.109375 3.820312 -5.914062 3.53125 -5.53125 C 3.238281 -5.144531 3.09375 -4.523438 3.09375 -3.671875 L 3.09375 0 Z M 1.125 0 "/></g></g></g><g fill="#f68712" fill-opacity="1"><g transform="translate(89.980708, 33.534212)"><g><path d="M 3.0625 0.15625 C 2.550781 0.15625 2.109375 0.0625 1.734375 -0.125 C 1.367188 -0.3125 1.085938 -0.582031 0.890625 -0.9375 C 0.691406 -1.300781 0.59375 -1.734375 0.59375 -2.234375 C 0.59375 -2.691406 0.691406 -3.078125 0.890625 -3.390625 C 1.085938 -3.710938 1.394531 -3.972656 1.8125 -4.171875 C 2.238281 -4.378906 2.785156 -4.535156 3.453125 -4.640625 C 3.921875 -4.710938 4.273438 -4.796875 4.515625 -4.890625 C 4.765625 -4.984375 4.929688 -5.085938 5.015625 -5.203125 C 5.097656 -5.316406 5.140625 -5.457031 5.140625 -5.625 C 5.140625 -5.882812 5.050781 -6.078125 4.875 -6.203125 C 4.707031 -6.335938 4.421875 -6.40625 4.015625 -6.40625 C 3.578125 -6.40625 3.160156 -6.304688 2.765625 -6.109375 C 2.367188 -5.921875 2.023438 -5.664062 1.734375 -5.34375 L 1.59375 -5.34375 L 0.78125 -6.59375 C 1.175781 -7.03125 1.660156 -7.375 2.234375 -7.625 C 2.804688 -7.875 3.429688 -8 4.109375 -8 C 5.148438 -8 5.898438 -7.773438 6.359375 -7.328125 C 6.828125 -6.890625 7.0625 -6.265625 7.0625 -5.453125 L 7.0625 -2.046875 C 7.0625 -1.691406 7.210938 -1.515625 7.515625 -1.515625 C 7.640625 -1.515625 7.757812 -1.535156 7.875 -1.578125 L 7.96875 -1.5625 L 8.109375 -0.1875 C 8.003906 -0.113281 7.851562 -0.0507812 7.65625 0 C 7.457031 0.0390625 7.242188 0.0625 7.015625 0.0625 C 6.546875 0.0625 6.179688 -0.0234375 5.921875 -0.203125 C 5.660156 -0.390625 5.472656 -0.675781 5.359375 -1.0625 L 5.203125 -1.078125 C 4.816406 -0.253906 4.101562 0.15625 3.0625 0.15625 Z M 3.6875 -1.328125 C 4.132812 -1.328125 4.492188 -1.476562 4.765625 -1.78125 C 5.046875 -2.082031 5.1875 -2.507812 5.1875 -3.0625 L 5.1875 -3.859375 L 5.046875 -3.875 C 4.929688 -3.78125 4.773438 -3.703125 4.578125 -3.640625 C 4.390625 -3.578125 4.113281 -3.515625 3.75 -3.453125 C 3.320312 -3.378906 3.015625 -3.253906 2.828125 -3.078125 C 2.640625 -2.910156 2.546875 -2.671875 2.546875 -2.359375 C 2.546875 -2.015625 2.644531 -1.753906 2.84375 -1.578125 C 3.050781 -1.410156 3.332031 -1.328125 3.6875 -1.328125 Z M 3.6875 -1.328125 "/></g></g></g><g fill="#f68712" fill-opacity="1"><g transform="translate(97.563761, 33.534212)"><g><path d="M 4.578125 0.15625 C 3.816406 0.15625 3.144531 0 2.5625 -0.3125 C 1.976562 -0.632812 1.519531 -1.097656 1.1875 -1.703125 C 0.863281 -2.316406 0.703125 -3.054688 0.703125 -3.921875 C 0.703125 -4.785156 0.863281 -5.519531 1.1875 -6.125 C 1.519531 -6.738281 1.972656 -7.203125 2.546875 -7.515625 C 3.128906 -7.835938 3.789062 -8 4.53125 -8 C 6.1875 -8 7.25 -7.394531 7.71875 -6.1875 L 6.359375 -5.21875 L 6.21875 -5.21875 C 6.050781 -5.59375 5.835938 -5.867188 5.578125 -6.046875 C 5.328125 -6.234375 4.976562 -6.328125 4.53125 -6.328125 C 3.96875 -6.328125 3.523438 -6.128906 3.203125 -5.734375 C 2.890625 -5.335938 2.734375 -4.734375 2.734375 -3.921875 C 2.734375 -3.109375 2.894531 -2.503906 3.21875 -2.109375 C 3.539062 -1.710938 3.992188 -1.515625 4.578125 -1.515625 C 5.003906 -1.515625 5.363281 -1.628906 5.65625 -1.859375 C 5.945312 -2.097656 6.160156 -2.429688 6.296875 -2.859375 L 6.4375 -2.875 L 7.84375 -2.109375 C 7.644531 -1.441406 7.273438 -0.894531 6.734375 -0.46875 C 6.203125 -0.0507812 5.484375 0.15625 4.578125 0.15625 Z M 4.578125 0.15625 "/></g></g></g><g fill="#f68712" fill-opacity="1"><g transform="translate(104.961993, 33.534212)"><g><path d="M 5.40625 -1.875 L 5.921875 -0.40625 C 5.710938 -0.238281 5.445312 -0.101562 5.125 0 C 4.800781 0.101562 4.4375 0.15625 4.03125 0.15625 C 3.175781 0.15625 2.523438 -0.0703125 2.078125 -0.53125 C 1.640625 -1 1.421875 -1.675781 1.421875 -2.5625 L 1.421875 -6.28125 L 0.234375 -6.28125 L 0.234375 -7.84375 L 1.421875 -7.84375 L 1.421875 -9.375 L 3.40625 -9.703125 L 3.40625 -7.84375 L 5.625 -7.84375 L 5.625 -6.28125 L 3.40625 -6.28125 L 3.40625 -2.703125 C 3.40625 -2.316406 3.484375 -2.03125 3.640625 -1.84375 C 3.796875 -1.664062 4.03125 -1.578125 4.34375 -1.578125 C 4.695312 -1.578125 5.003906 -1.675781 5.265625 -1.875 Z M 5.40625 -1.875 "/></g></g></g><g fill="#f68712" fill-opacity="1"><g transform="translate(110.369797, 33.534212)"><g><path d="M 4.5625 0.15625 C 3.789062 0.15625 3.113281 0 2.53125 -0.3125 C 1.945312 -0.632812 1.492188 -1.097656 1.171875 -1.703125 C 0.859375 -2.316406 0.703125 -3.054688 0.703125 -3.921875 C 0.703125 -4.785156 0.859375 -5.519531 1.171875 -6.125 C 1.492188 -6.738281 1.945312 -7.203125 2.53125 -7.515625 C 3.113281 -7.835938 3.789062 -8 4.5625 -8 C 5.320312 -8 5.992188 -7.835938 6.578125 -7.515625 C 7.160156 -7.203125 7.613281 -6.738281 7.9375 -6.125 C 8.257812 -5.519531 8.421875 -4.785156 8.421875 -3.921875 C 8.421875 -3.054688 8.257812 -2.316406 7.9375 -1.703125 C 7.613281 -1.097656 7.160156 -0.632812 6.578125 -0.3125 C 5.992188 0 5.320312 0.15625 4.5625 0.15625 Z M 4.5625 -1.515625 C 5.78125 -1.515625 6.390625 -2.316406 6.390625 -3.921875 C 6.390625 -4.742188 6.234375 -5.347656 5.921875 -5.734375 C 5.609375 -6.128906 5.15625 -6.328125 4.5625 -6.328125 C 3.34375 -6.328125 2.734375 -5.523438 2.734375 -3.921875 C 2.734375 -2.316406 3.34375 -1.515625 4.5625 -1.515625 Z M 4.5625 -1.515625 "/></g></g></g><g fill="#f68712" fill-opacity="1"><g transform="translate(118.798784, 33.534212)"><g><path d="M 1.125 0 L 1.125 -7.84375 L 3.046875 -7.84375 L 3.046875 -6.671875 L 3.1875 -6.640625 C 3.382812 -7.078125 3.632812 -7.398438 3.9375 -7.609375 C 4.25 -7.816406 4.625 -7.921875 5.0625 -7.921875 C 5.507812 -7.921875 5.847656 -7.84375 6.078125 -7.6875 L 5.75 -5.984375 L 5.59375 -5.953125 C 5.46875 -6.003906 5.34375 -6.039062 5.21875 -6.0625 C 5.101562 -6.09375 4.960938 -6.109375 4.796875 -6.109375 C 4.242188 -6.109375 3.820312 -5.914062 3.53125 -5.53125 C 3.238281 -5.144531 3.09375 -4.523438 3.09375 -3.671875 L 3.09375 0 Z M 1.125 0 "/></g></g></g><g fill="#f68712" fill-opacity="1"><g transform="translate(57.918093, 41.61109)"><g><path d="M 2.78125 -0.90625 C 2.726562 -0.726562 2.660156 -0.578125 2.578125 -0.453125 C 2.503906 -0.335938 2.410156 -0.242188 2.296875 -0.171875 C 2.179688 -0.0976562 2.054688 -0.0390625 1.921875 0 C 1.796875 0.03125 1.660156 0.046875 1.515625 0.046875 C 1.328125 0.046875 1.148438 0.0195312 0.984375 -0.03125 C 0.828125 -0.0820312 0.6875 -0.164062 0.5625 -0.28125 C 0.445312 -0.40625 0.351562 -0.5625 0.28125 -0.75 C 0.21875 -0.945312 0.1875 -1.195312 0.1875 -1.5 C 0.1875 -1.789062 0.21875 -2.035156 0.28125 -2.234375 C 0.351562 -2.429688 0.445312 -2.585938 0.5625 -2.703125 C 0.6875 -2.828125 0.828125 -2.914062 0.984375 -2.96875 C 1.148438 -3.019531 1.328125 -3.046875 1.515625 -3.046875 C 1.648438 -3.046875 1.78125 -3.03125 1.90625 -3 C 2.039062 -2.96875 2.160156 -2.914062 2.265625 -2.84375 C 2.378906 -2.769531 2.476562 -2.679688 2.5625 -2.578125 C 2.644531 -2.472656 2.707031 -2.335938 2.75 -2.171875 L 2.1875 -2 C 2.164062 -2.101562 2.128906 -2.1875 2.078125 -2.25 C 2.035156 -2.320312 1.984375 -2.378906 1.921875 -2.421875 C 1.859375 -2.460938 1.789062 -2.488281 1.71875 -2.5 C 1.65625 -2.519531 1.585938 -2.53125 1.515625 -2.53125 C 1.410156 -2.53125 1.316406 -2.515625 1.234375 -2.484375 C 1.148438 -2.453125 1.070312 -2.394531 1 -2.3125 C 0.9375 -2.238281 0.882812 -2.132812 0.84375 -2 C 0.8125 -1.863281 0.796875 -1.695312 0.796875 -1.5 C 0.796875 -1.289062 0.8125 -1.117188 0.84375 -0.984375 C 0.882812 -0.859375 0.9375 -0.753906 1 -0.671875 C 1.070312 -0.597656 1.148438 -0.546875 1.234375 -0.515625 C 1.316406 -0.484375 1.410156 -0.46875 1.515625 -0.46875 C 1.585938 -0.46875 1.660156 -0.476562 1.734375 -0.5 C 1.804688 -0.519531 1.867188 -0.550781 1.921875 -0.59375 C 1.984375 -0.644531 2.035156 -0.707031 2.078125 -0.78125 C 2.128906 -0.851562 2.171875 -0.945312 2.203125 -1.0625 Z M 2.78125 -0.90625 "/></g></g></g><g fill="#f68712" fill-opacity="1"><g transform="translate(61.681185, 41.61109)"><g><path d="M 1.421875 -2.484375 L 1.125 -2.484375 L 1.125 -0.515625 L 1.421875 -0.515625 L 1.421875 0 L 0.203125 0 L 0.203125 -0.515625 L 0.515625 -0.515625 L 0.515625 -2.484375 L 0.203125 -2.484375 L 0.203125 -3 L 1.421875 -3 Z M 1.421875 -2.484375 "/></g></g></g><g fill="#f68712" fill-opacity="1"><g transform="translate(64.155777, 41.61109)"><g><path d="M 2.203125 -3 L 2.84375 -3 L 1.703125 0 L 1.21875 0 L 0.078125 -3 L 0.71875 -3 L 1.453125 -1.03125 Z M 2.203125 -3 "/></g></g></g><g fill="#f68712" fill-opacity="1"><g transform="translate(67.910306, 41.61109)"><g><path d="M 1.421875 -2.484375 L 1.125 -2.484375 L 1.125 -0.515625 L 1.421875 -0.515625 L 1.421875 0 L 0.203125 0 L 0.203125 -0.515625 L 0.515625 -0.515625 L 0.515625 -2.484375 L 0.203125 -2.484375 L 0.203125 -3 L 1.421875 -3 Z M 1.421875 -2.484375 "/></g></g></g><g fill="#f68712" fill-opacity="1"><g transform="translate(70.384898, 41.61109)"><g><path d="M 0.859375 -0.515625 L 2.078125 -0.515625 L 2.078125 0 L 0.25 0 L 0.25 -3 L 0.859375 -3 Z M 0.859375 -0.515625 "/></g></g></g><g fill="#f68712" fill-opacity="1"><g transform="translate(73.467356, 41.61109)"><g/></g></g><g fill="#f68712" fill-opacity="1"><g transform="translate(75.633734, 41.61109)"><g><path d="M 2.484375 -3 L 3.0625 -1.15625 L 3.625 -3 L 4.25 -3 L 3.328125 0 L 2.78125 0 L 2.15625 -2 L 1.546875 0 L 1 0 L 0.078125 -3 L 0.703125 -3 L 1.265625 -1.15625 L 1.84375 -3 Z M 2.484375 -3 "/></g></g></g><g fill="#f68712" fill-opacity="1"><g transform="translate(80.800907, 41.61109)"><g><path d="M 1.421875 -2.484375 L 1.125 -2.484375 L 1.125 -0.515625 L 1.421875 -0.515625 L 1.421875 0 L 0.203125 0 L 0.203125 -0.515625 L 0.515625 -0.515625 L 0.515625 -2.484375 L 0.203125 -2.484375 L 0.203125 -3 L 1.421875 -3 Z M 1.421875 -2.484375 "/></g></g></g><g fill="#f68712" fill-opacity="1"><g transform="translate(83.275498, 41.61109)"><g><path d="M 2.296875 -2.140625 C 2.296875 -1.898438 2.242188 -1.707031 2.140625 -1.5625 C 2.035156 -1.414062 1.878906 -1.316406 1.671875 -1.265625 L 2.421875 0 L 1.734375 0 L 1.015625 -1.21875 L 0.859375 -1.21875 L 0.859375 0 L 0.25 0 L 0.25 -3 L 1.265625 -3 C 1.609375 -3 1.863281 -2.921875 2.03125 -2.765625 C 2.207031 -2.617188 2.296875 -2.410156 2.296875 -2.140625 Z M 0.859375 -2.484375 L 0.859375 -1.734375 L 1.265625 -1.734375 C 1.410156 -1.734375 1.515625 -1.757812 1.578125 -1.8125 C 1.648438 -1.863281 1.6875 -1.96875 1.6875 -2.125 C 1.6875 -2.238281 1.648438 -2.328125 1.578125 -2.390625 C 1.515625 -2.453125 1.410156 -2.484375 1.265625 -2.484375 Z M 0.859375 -2.484375 "/></g></g></g><g fill="#f68712" fill-opacity="1"><g transform="translate(86.610516, 41.61109)"><g><path d="M 1.421875 -2.484375 L 1.125 -2.484375 L 1.125 -0.515625 L 1.421875 -0.515625 L 1.421875 0 L 0.203125 0 L 0.203125 -0.515625 L 0.515625 -0.515625 L 0.515625 -2.484375 L 0.203125 -2.484375 L 0.203125 -3 L 1.421875 -3 Z M 1.421875 -2.484375 "/></g></g></g><g fill="#f68712" fill-opacity="1"><g transform="translate(89.085108, 41.61109)"><g><path d="M 0.796875 -3 L 2 -1.1875 L 2 -3 L 2.609375 -3 L 2.609375 0 L 2.0625 0 L 0.859375 -1.8125 L 0.859375 0 L 0.25 0 L 0.25 -3 Z M 0.796875 -3 "/></g></g></g><g fill="#f68712" fill-opacity="1"><g transform="translate(92.783989, 41.61109)"><g><path d="M 2.796875 -1.671875 L 2.796875 -1.3125 C 2.796875 -1.082031 2.765625 -0.882812 2.703125 -0.71875 C 2.640625 -0.550781 2.550781 -0.410156 2.4375 -0.296875 C 2.332031 -0.179688 2.203125 -0.09375 2.046875 -0.03125 C 1.890625 0.0195312 1.71875 0.046875 1.53125 0.046875 C 1.351562 0.046875 1.179688 0.0195312 1.015625 -0.03125 C 0.847656 -0.0820312 0.703125 -0.164062 0.578125 -0.28125 C 0.460938 -0.40625 0.367188 -0.5625 0.296875 -0.75 C 0.222656 -0.945312 0.1875 -1.195312 0.1875 -1.5 C 0.1875 -1.789062 0.222656 -2.035156 0.296875 -2.234375 C 0.367188 -2.429688 0.460938 -2.585938 0.578125 -2.703125 C 0.703125 -2.828125 0.847656 -2.914062 1.015625 -2.96875 C 1.179688 -3.019531 1.351562 -3.046875 1.53125 -3.046875 C 1.675781 -3.046875 1.8125 -3.03125 1.9375 -3 C 2.0625 -2.96875 2.175781 -2.914062 2.28125 -2.84375 C 2.382812 -2.769531 2.476562 -2.675781 2.5625 -2.5625 C 2.644531 -2.457031 2.707031 -2.328125 2.75 -2.171875 L 2.203125 -2 C 2.140625 -2.195312 2.050781 -2.332031 1.9375 -2.40625 C 1.820312 -2.488281 1.6875 -2.53125 1.53125 -2.53125 C 1.4375 -2.53125 1.34375 -2.515625 1.25 -2.484375 C 1.164062 -2.453125 1.085938 -2.394531 1.015625 -2.3125 C 0.941406 -2.238281 0.882812 -2.132812 0.84375 -2 C 0.8125 -1.863281 0.796875 -1.695312 0.796875 -1.5 C 0.796875 -1.289062 0.8125 -1.117188 0.84375 -0.984375 C 0.882812 -0.859375 0.941406 -0.753906 1.015625 -0.671875 C 1.085938 -0.597656 1.164062 -0.546875 1.25 -0.515625 C 1.34375 -0.484375 1.4375 -0.46875 1.53125 -0.46875 C 1.625 -0.46875 1.707031 -0.476562 1.78125 -0.5 C 1.851562 -0.519531 1.914062 -0.554688 1.96875 -0.609375 C 2.03125 -0.660156 2.078125 -0.726562 2.109375 -0.8125 C 2.148438 -0.90625 2.175781 -1.019531 2.1875 -1.15625 L 1.375 -1.15625 L 1.375 -1.671875 Z M 2.796875 -1.671875 "/></g></g></g><g fill="#f68712" fill-opacity="1"><g transform="translate(96.607013, 41.61109)"><g/></g></g><g fill="#f68712" fill-opacity="1"><g transform="translate(98.77339, 41.61109)"><g><path d="M 0.859375 -1.109375 L 0.859375 0 L 0.25 0 L 0.25 -3 L 1.21875 -3 C 1.570312 -3 1.835938 -2.921875 2.015625 -2.765625 C 2.203125 -2.617188 2.296875 -2.394531 2.296875 -2.09375 C 2.296875 -1.738281 2.203125 -1.484375 2.015625 -1.328125 C 1.835938 -1.179688 1.578125 -1.109375 1.234375 -1.109375 Z M 0.859375 -2.484375 L 0.859375 -1.625 L 1.234375 -1.625 C 1.378906 -1.625 1.488281 -1.65625 1.5625 -1.71875 C 1.644531 -1.78125 1.6875 -1.90625 1.6875 -2.09375 C 1.6875 -2.175781 1.675781 -2.238281 1.65625 -2.28125 C 1.632812 -2.332031 1.601562 -2.375 1.5625 -2.40625 C 1.53125 -2.4375 1.484375 -2.457031 1.421875 -2.46875 C 1.367188 -2.476562 1.304688 -2.484375 1.234375 -2.484375 Z M 0.859375 -2.484375 "/></g></g></g><g fill="#f68712" fill-opacity="1"><g transform="translate(102.112692, 41.61109)"><g><path d="M 2.03125 -0.640625 L 0.953125 -0.640625 L 0.71875 0 L 0.078125 0 L 1.171875 -3 L 1.8125 -3 L 2.90625 0 L 2.25 0 Z M 1.140625 -1.15625 L 1.828125 -1.15625 L 1.484375 -2.125 Z M 1.140625 -1.15625 "/></g></g></g><g fill="#f68712" fill-opacity="1"><g transform="translate(105.931432, 41.61109)"><g><path d="M 1.421875 -2.484375 L 1.125 -2.484375 L 1.125 -0.515625 L 1.421875 -0.515625 L 1.421875 0 L 0.203125 0 L 0.203125 -0.515625 L 0.515625 -0.515625 L 0.515625 -2.484375 L 0.203125 -2.484375 L 0.203125 -3 L 1.421875 -3 Z M 1.421875 -2.484375 "/></g></g></g><g fill="#f68712" fill-opacity="1"><g transform="translate(108.406024, 41.61109)"><g><path d="M 0.796875 -3 L 2 -1.1875 L 2 -3 L 2.609375 -3 L 2.609375 0 L 2.0625 0 L 0.859375 -1.8125 L 0.859375 0 L 0.25 0 L 0.25 -3 Z M 0.796875 -3 "/></g></g></g><g fill="#f68712" fill-opacity="1"><g transform="translate(112.104905, 41.61109)"><g><path d="M 1.5625 -2.484375 L 1.5625 0 L 0.953125 0 L 0.953125 -2.484375 L 0.15625 -2.484375 L 0.15625 -3 L 2.359375 -3 L 2.359375 -2.484375 Z M 1.5625 -2.484375 "/></g></g></g><g fill="#f68712" fill-opacity="1"><g transform="translate(115.461329, 41.61109)"><g><path d="M 1.421875 -2.484375 L 1.125 -2.484375 L 1.125 -0.515625 L 1.421875 -0.515625 L 1.421875 0 L 0.203125 0 L 0.203125 -0.515625 L 0.515625 -0.515625 L 0.515625 -2.484375 L 0.203125 -2.484375 L 0.203125 -3 L 1.421875 -3 Z M 1.421875 -2.484375 "/></g></g></g><g fill="#f68712" fill-opacity="1"><g transform="translate(117.935921, 41.61109)"><g><path d="M 0.796875 -3 L 2 -1.1875 L 2 -3 L 2.609375 -3 L 2.609375 0 L 2.0625 0 L 0.859375 -1.8125 L 0.859375 0 L 0.25 0 L 0.25 -3 Z M 0.796875 -3 "/></g></g></g><g fill="#f68712" fill-opacity="1"><g transform="translate(121.634802, 41.61109)"><g><path d="M 2.796875 -1.671875 L 2.796875 -1.3125 C 2.796875 -1.082031 2.765625 -0.882812 2.703125 -0.71875 C 2.640625 -0.550781 2.550781 -0.410156 2.4375 -0.296875 C 2.332031 -0.179688 2.203125 -0.09375 2.046875 -0.03125 C 1.890625 0.0195312 1.71875 0.046875 1.53125 0.046875 C 1.351562 0.046875 1.179688 0.0195312 1.015625 -0.03125 C 0.847656 -0.0820312 0.703125 -0.164062 0.578125 -0.28125 C 0.460938 -0.40625 0.367188 -0.5625 0.296875 -0.75 C 0.222656 -0.945312 0.1875 -1.195312 0.1875 -1.5 C 0.1875 -1.789062 0.222656 -2.035156 0.296875 -2.234375 C 0.367188 -2.429688 0.460938 -2.585938 0.578125 -2.703125 C 0.703125 -2.828125 0.847656 -2.914062 1.015625 -2.96875 C 1.179688 -3.019531 1.351562 -3.046875 1.53125 -3.046875 C 1.675781 -3.046875 1.8125 -3.03125 1.9375 -3 C 2.0625 -2.96875 2.175781 -2.914062 2.28125 -2.84375 C 2.382812 -2.769531 2.476562 -2.675781 2.5625 -2.5625 C 2.644531 -2.457031 2.707031 -2.328125 2.75 -2.171875 L 2.203125 -2 C 2.140625 -2.195312 2.050781 -2.332031 1.9375 -2.40625 C 1.820312 -2.488281 1.6875 -2.53125 1.53125 -2.53125 C 1.4375 -2.53125 1.34375 -2.515625 1.25 -2.484375 C 1.164062 -2.453125 1.085938 -2.394531 1.015625 -2.3125 C 0.941406 -2.238281 0.882812 -2.132812 0.84375 -2 C 0.8125 -1.863281 0.796875 -1.695312 0.796875 -1.5 C 0.796875 -1.289062 0.8125 -1.117188 0.84375 -0.984375 C 0.882812 -0.859375 0.941406 -0.753906 1.015625 -0.671875 C 1.085938 -0.597656 1.164062 -0.546875 1.25 -0.515625 C 1.34375 -0.484375 1.4375 -0.46875 1.53125 -0.46875 C 1.625 -0.46875 1.707031 -0.476562 1.78125 -0.5 C 1.851562 -0.519531 1.914062 -0.554688 1.96875 -0.609375 C 2.03125 -0.660156 2.078125 -0.726562 2.109375 -0.8125 C 2.148438 -0.90625 2.175781 -1.019531 2.1875 -1.15625 L 1.375 -1.15625 L 1.375 -1.671875 Z M 2.796875 -1.671875 "/></g></g></g></svg>